<svg xmlns="http://www.w3.org/2000/svg" version="1.1" xmlns:xlink="http://www.w3.org/1999/xlink" width="512" height="512" x="0" y="0" viewBox="0 0 264.02 264.02" style="enable-background:new 0 0 512 512" xml:space="preserve"><g><path d="M210.506 126.764a7.5 7.5 0 0 0-7.5 7.5c0 17.302-8.038 34.335-22.052 46.73-13.11 11.596-30.349 18.247-47.297 18.247h-3.295c-16.947 0-34.186-6.65-47.296-18.247-14.015-12.395-22.052-29.427-22.052-46.73 0-4.142-3.357-7.5-7.5-7.5s-7.5 3.358-7.5 7.5c0 21.598 9.883 42.726 27.114 57.966 14.314 12.662 32.764 20.413 51.381 21.773v35.017H89.675a7.5 7.5 0 0 0-7.5 7.5 7.5 7.5 0 0 0 7.5 7.5h84.667a7.5 7.5 0 0 0 7.5-7.5 7.5 7.5 0 0 0-7.5-7.5H139.51v-35.017c18.617-1.361 37.067-9.112 51.382-21.773 17.232-15.241 27.114-36.369 27.114-57.966a7.5 7.5 0 0 0-7.5-7.5z" style="" fill="#ffffff" data-original="#000002" opacity="1"></path><path d="M130.421 184.938h3.18c30.021 0 56.357-24.364 56.357-52.14v-80.66C189.957 24.364 163.622 0 133.6 0h-3.18c-30.022 0-56.357 24.364-56.357 52.138v80.66c0 27.775 26.335 52.14 56.358 52.14zm-41.358-132.8C89.063 32.701 108.776 15 130.421 15h3.18c21.645 0 41.357 17.701 41.357 37.138v80.66c0 19.438-19.712 37.14-41.357 37.14h-3.18c-21.644 0-41.357-17.702-41.357-37.14v-80.66z" style="" fill="#ffffff" data-original="#000002" opacity="1"></path></g></svg>